<svg width="660" height="266" viewBox="0 0 660 266" fill="none" xmlns="http://www.w3.org/2000/svg">
<path fill-rule="evenodd" clip-rule="evenodd" d="M0.371094 99.9802V186.958C0.371094 221.948 34.3711 266 95.3711 266C135.136 266 167.371 233.764 167.371 194C167.371 154.236 135.136 122 95.3711 122H37.3613C27.3643 122 13.168 118.375 0.371094 99.9802Z" fill="url(#paint0_linear_24_132)"/>
<path d="M92.3472 69.988C92.3472 56.5294 92.3472 24.9998 92.3472 24C84.3492 24 58.299 24 46.3591 24C20.9606 24 0.371094 44.5896 0.371094 69.988C0.371094 95.3865 20.9606 115.976 46.3591 115.976C71.7576 115.976 92.3472 95.3865 92.3472 69.988Z" fill="url(#paint1_linear_24_132)"/>
<path d="M265.568 142H232.756C228.02 142 224.626 140.95 222.575 138.851C220.573 136.702 219.572 133.309 219.572 128.67V47.957C219.572 43.2207 220.598 39.8271 222.648 37.7764C224.748 35.6768 228.117 34.627 232.756 34.627H267.546C272.673 34.627 277.116 34.9443 280.876 35.5791C284.636 36.2139 288.005 37.4346 290.983 39.2412C293.522 40.7549 295.769 42.6836 297.722 45.0273C299.675 47.3223 301.164 49.8857 302.189 52.7178C303.215 55.501 303.728 58.4551 303.728 61.5801C303.728 72.3223 298.356 80.1836 287.614 85.1641C301.726 89.6562 308.781 98.3965 308.781 111.385C308.781 117.391 307.243 122.811 304.167 127.645C301.091 132.43 296.94 135.97 291.716 138.265C288.444 139.632 284.685 140.608 280.437 141.194C276.188 141.731 271.232 142 265.568 142ZM263.957 94.3193H241.325V125.667H264.689C279.387 125.667 286.735 120.369 286.735 109.773C286.735 104.354 284.831 100.423 281.022 97.9814C277.214 95.54 271.525 94.3193 263.957 94.3193ZM241.325 50.96V78.7188H261.247C266.667 78.7188 270.842 78.2061 273.771 77.1807C276.75 76.1553 279.021 74.2021 280.583 71.3213C281.804 69.2705 282.414 66.9756 282.414 64.4365C282.414 59.0166 280.485 55.4277 276.628 53.6699C272.771 51.8633 266.887 50.96 258.977 50.96H241.325ZM374.919 32.7959C386.052 32.7959 395.598 35.0664 403.557 39.6074C411.564 44.0996 417.619 50.5205 421.721 58.8701C425.822 67.1709 427.873 76.9365 427.873 88.167C427.873 96.4678 426.75 104.012 424.504 110.799C422.258 117.586 418.889 123.47 414.396 128.45C409.904 133.431 404.387 137.239 397.844 139.876C391.301 142.513 383.806 143.831 375.358 143.831C366.96 143.831 359.44 142.488 352.8 139.803C346.159 137.068 340.617 133.235 336.174 128.304C331.73 123.372 328.361 117.439 326.066 110.506C323.82 103.572 322.697 96.0771 322.697 88.0205C322.697 79.7686 323.869 72.2002 326.213 65.3154C328.605 58.4307 332.048 52.5713 336.54 47.7373C341.032 42.9033 346.501 39.2168 352.946 36.6777C359.392 34.0898 366.716 32.7959 374.919 32.7959ZM405.827 88.0205C405.827 80.1592 404.558 73.3477 402.019 67.5859C399.479 61.8242 395.842 57.4785 391.105 54.5488C386.418 51.5703 381.022 50.0811 374.919 50.0811C370.573 50.0811 366.545 50.9111 362.834 52.5713C359.172 54.1826 355.998 56.5508 353.312 59.6758C350.676 62.8008 348.576 66.8047 347.014 71.6875C345.5 76.5215 344.743 81.9658 344.743 88.0205C344.743 94.124 345.5 99.6416 347.014 104.573C348.576 109.505 350.749 113.606 353.532 116.878C356.364 120.101 359.587 122.518 363.2 124.129C366.862 125.74 370.866 126.546 375.212 126.546C380.778 126.546 385.881 125.154 390.52 122.371C395.207 119.588 398.918 115.291 401.652 109.48C404.436 103.67 405.827 96.5166 405.827 88.0205ZM474.821 45.833L516.643 109.114V45.2471C516.643 41.0967 517.521 37.9961 519.279 35.9453C521.086 33.8457 523.503 32.7959 526.53 32.7959C529.655 32.7959 532.121 33.8457 533.928 35.9453C535.734 37.9961 536.638 41.0967 536.638 45.2471V129.695C536.638 139.119 532.731 143.831 524.919 143.831C522.966 143.831 521.208 143.538 519.646 142.952C518.083 142.415 516.618 141.536 515.251 140.315C513.884 139.095 512.614 137.679 511.442 136.067C510.271 134.407 509.099 132.723 507.927 131.014L467.131 68.4648V131.38C467.131 135.481 466.179 138.582 464.274 140.682C462.37 142.781 459.929 143.831 456.95 143.831C453.874 143.831 451.408 142.781 449.553 140.682C447.697 138.533 446.77 135.433 446.77 131.38V48.543C446.77 45.0273 447.16 42.2686 447.941 40.2666C448.869 38.0693 450.407 36.2871 452.556 34.9199C454.704 33.5039 457.023 32.7959 459.514 32.7959C461.467 32.7959 463.127 33.1133 464.494 33.748C465.91 34.3828 467.131 35.2373 468.156 36.3115C469.23 37.3857 470.305 38.7773 471.379 40.4863C472.502 42.1953 473.649 43.9775 474.821 45.833ZM627.092 129.842L621.965 116.365H578.312L573.186 130.135C571.184 135.506 569.475 139.144 568.059 141.048C566.643 142.903 564.323 143.831 561.101 143.831C558.366 143.831 555.949 142.83 553.85 140.828C551.75 138.826 550.7 136.556 550.7 134.017C550.7 132.552 550.944 131.038 551.433 129.476C551.921 127.913 552.727 125.74 553.85 122.957L581.315 53.2305C582.097 51.2285 583.024 48.8359 584.099 46.0527C585.222 43.2207 586.394 40.877 587.614 39.0215C588.884 37.166 590.52 35.6768 592.521 34.5537C594.572 33.3818 597.087 32.7959 600.065 32.7959C603.093 32.7959 605.607 33.3818 607.609 34.5537C609.66 35.6768 611.296 37.1416 612.517 38.9482C613.786 40.7549 614.836 42.708 615.666 44.8076C616.545 46.8584 617.644 49.6172 618.962 53.084L647.014 122.371C649.211 127.645 650.31 131.478 650.31 133.87C650.31 136.36 649.26 138.655 647.16 140.755C645.109 142.806 642.619 143.831 639.689 143.831C637.98 143.831 636.516 143.514 635.295 142.879C634.074 142.293 633.049 141.487 632.219 140.462C631.389 139.388 630.485 137.776 629.509 135.628C628.581 133.431 627.775 131.502 627.092 129.842ZM584.025 100.032H616.105L599.919 55.7207L584.025 100.032Z" fill="#733CE9"/>
<path d="M223.936 234C222.763 234 221.765 233.619 220.944 232.856C220.181 232.035 219.8 231.037 219.8 229.864V169.408C219.8 168.176 220.181 167.179 220.944 166.416C221.765 165.653 222.763 165.272 223.936 165.272H264.328C265.501 165.272 266.469 165.653 267.232 166.416C267.995 167.12 268.376 168.059 268.376 169.232C268.376 170.288 267.995 171.197 267.232 171.96C266.469 172.664 265.501 173.016 264.328 173.016H228.072V195.544H254.208C255.44 195.544 256.408 195.925 257.112 196.688C257.875 197.392 258.256 198.301 258.256 199.416C258.256 200.531 257.875 201.469 257.112 202.232C256.408 202.936 255.44 203.288 254.208 203.288H228.072V226.256H264.328C265.501 226.256 266.469 226.637 267.232 227.4C267.995 228.104 268.376 228.984 268.376 230.04C268.376 231.213 267.995 232.181 267.232 232.944C266.469 233.648 265.501 234 264.328 234H223.936ZM311.319 234C310.674 234 310.117 233.912 309.647 233.736C309.178 233.501 308.709 233.091 308.239 232.504L292.839 213.672L289.935 210.856L274.623 192.2C273.861 191.379 273.479 190.469 273.479 189.472C273.479 188.475 273.773 187.624 274.359 186.92C274.946 186.216 275.826 185.864 276.999 185.864C278.231 185.864 279.258 186.304 280.079 187.184L295.039 205.488L297.327 207.6L313.783 227.84C314.605 228.837 314.986 229.805 314.927 230.744C314.869 231.683 314.487 232.475 313.783 233.12C313.138 233.707 312.317 234 311.319 234ZM277.263 234C276.149 234 275.269 233.677 274.623 233.032C274.037 232.328 273.743 231.507 273.743 230.568C273.743 229.571 274.095 228.603 274.799 227.664L290.287 208.304L294.687 214.376L280.079 232.768C279.375 233.589 278.437 234 277.263 234ZM298.559 211.296L293.191 206.368L307.711 187.36C308.181 186.773 308.65 186.392 309.119 186.216C309.647 185.981 310.234 185.864 310.879 185.864C312.053 185.864 312.933 186.245 313.519 187.008C314.106 187.712 314.37 188.563 314.311 189.56C314.311 190.557 313.959 191.525 313.255 192.464L298.559 211.296ZM343.607 234.352C338.972 234.352 334.836 233.296 331.199 231.184C327.562 229.013 324.687 226.109 322.575 222.472C320.522 218.776 319.495 214.611 319.495 209.976C319.495 205.224 320.492 201 322.487 197.304C324.54 193.608 327.327 190.733 330.847 188.68C334.367 186.568 338.444 185.512 343.079 185.512C346.54 185.512 349.738 186.187 352.671 187.536C355.604 188.885 358.215 190.909 360.503 193.608C361.266 194.429 361.53 195.309 361.295 196.248C361.119 197.187 360.532 198.008 359.535 198.712C358.831 199.24 358.01 199.416 357.071 199.24C356.132 199.064 355.311 198.565 354.607 197.744C351.498 194.4 347.655 192.728 343.079 192.728C339.97 192.728 337.212 193.461 334.807 194.928C332.46 196.395 330.612 198.419 329.263 201C327.972 203.523 327.327 206.515 327.327 209.976C327.327 213.261 328.002 216.195 329.351 218.776C330.759 221.357 332.695 223.411 335.159 224.936C337.623 226.403 340.439 227.136 343.607 227.136C345.778 227.136 347.714 226.872 349.415 226.344C351.116 225.816 352.642 224.965 353.991 223.792C354.812 223.088 355.663 222.707 356.543 222.648C357.482 222.589 358.303 222.853 359.007 223.44C359.887 224.203 360.386 225.053 360.503 225.992C360.62 226.931 360.298 227.752 359.535 228.456C355.311 232.387 350.002 234.352 343.607 234.352ZM378.687 215.696C377.513 215.696 376.545 215.315 375.783 214.552C375.02 213.731 374.639 212.733 374.639 211.56V169.32C374.639 168.088 375.02 167.12 375.783 166.416C376.545 165.653 377.513 165.272 378.687 165.272C379.919 165.272 380.887 165.653 381.591 166.416C382.353 167.12 382.735 168.088 382.735 169.32V211.56C382.735 212.733 382.353 213.731 381.591 214.552C380.887 215.315 379.919 215.696 378.687 215.696ZM415.559 234.088C414.385 234.088 413.388 233.707 412.567 232.944C411.804 232.123 411.423 231.155 411.423 230.04V207.864C411.423 204.403 410.777 201.587 409.487 199.416C408.196 197.187 406.465 195.544 404.295 194.488C402.124 193.373 399.631 192.816 396.815 192.816C394.175 192.816 391.799 193.344 389.687 194.4C387.575 195.456 385.873 196.864 384.583 198.624C383.351 200.384 382.735 202.408 382.735 204.696H377.455C377.513 201 378.452 197.715 380.271 194.84C382.089 191.907 384.553 189.619 387.663 187.976C390.772 186.275 394.263 185.424 398.135 185.424C402.241 185.424 405.908 186.304 409.135 188.064C412.361 189.765 414.913 192.288 416.791 195.632C418.668 198.976 419.607 203.053 419.607 207.864V230.04C419.607 231.155 419.196 232.123 418.375 232.944C417.612 233.707 416.673 234.088 415.559 234.088ZM378.687 234.088C377.513 234.088 376.545 233.707 375.783 232.944C375.02 232.181 374.639 231.213 374.639 230.04V189.912C374.639 188.68 375.02 187.712 375.783 187.008C376.545 186.245 377.513 185.864 378.687 185.864C379.919 185.864 380.887 186.245 381.591 187.008C382.353 187.712 382.735 188.68 382.735 189.912V230.04C382.735 231.213 382.353 232.181 381.591 232.944C380.887 233.707 379.919 234.088 378.687 234.088ZM455.041 234.352C450.641 234.352 446.711 233.296 443.249 231.184C439.788 229.072 437.06 226.168 435.065 222.472C433.071 218.776 432.073 214.611 432.073 209.976C432.073 205.283 433.129 201.117 435.241 197.48C437.412 193.784 440.316 190.88 443.953 188.768C447.649 186.597 451.785 185.512 456.361 185.512C460.996 185.512 465.132 186.597 468.769 188.768C472.407 190.88 475.281 193.784 477.393 197.48C479.564 201.176 480.679 205.341 480.737 209.976L477.569 210.768C477.569 215.227 476.572 219.245 474.577 222.824C472.583 226.403 469.884 229.219 466.481 231.272C463.137 233.325 459.324 234.352 455.041 234.352ZM456.361 227.136C459.529 227.136 462.345 226.403 464.809 224.936C467.273 223.411 469.209 221.357 470.617 218.776C472.084 216.136 472.817 213.203 472.817 209.976C472.817 206.691 472.084 203.757 470.617 201.176C469.209 198.536 467.273 196.483 464.809 195.016C462.345 193.491 459.529 192.728 456.361 192.728C453.311 192.728 450.524 193.491 448.001 195.016C445.479 196.483 443.484 198.536 442.017 201.176C440.609 203.757 439.905 206.691 439.905 209.976C439.905 213.203 440.609 216.136 442.017 218.776C443.484 221.357 445.479 223.411 448.001 224.936C450.524 226.403 453.311 227.136 456.361 227.136ZM476.601 234.088C475.428 234.088 474.46 233.707 473.697 232.944C472.935 232.181 472.553 231.213 472.553 230.04V215.96L474.225 207.512L480.737 209.976V230.04C480.737 231.213 480.327 232.181 479.505 232.944C478.743 233.707 477.775 234.088 476.601 234.088ZM534.926 234.088C533.753 234.088 532.755 233.707 531.934 232.944C531.171 232.123 530.79 231.155 530.79 230.04V207.864C530.79 204.403 530.145 201.587 528.854 199.416C527.563 197.187 525.833 195.544 523.662 194.488C521.491 193.373 518.998 192.816 516.182 192.816C513.542 192.816 511.166 193.344 509.054 194.4C506.942 195.456 505.241 196.864 503.95 198.624C502.718 200.384 502.102 202.408 502.102 204.696H496.822C496.881 201 497.819 197.715 499.638 194.84C501.457 191.907 503.921 189.619 507.03 187.976C510.139 186.275 513.63 185.424 517.502 185.424C521.609 185.424 525.275 186.304 528.502 188.064C531.729 189.765 534.281 192.288 536.158 195.632C538.035 198.976 538.974 203.053 538.974 207.864V230.04C538.974 231.155 538.563 232.123 537.742 232.944C536.979 233.707 536.041 234.088 534.926 234.088ZM498.054 234.088C496.881 234.088 495.913 233.707 495.15 232.944C494.387 232.181 494.006 231.213 494.006 230.04V189.912C494.006 188.68 494.387 187.712 495.15 187.008C495.913 186.245 496.881 185.864 498.054 185.864C499.286 185.864 500.254 186.245 500.958 187.008C501.721 187.712 502.102 188.68 502.102 189.912V230.04C502.102 231.213 501.721 232.181 500.958 232.944C500.254 233.707 499.286 234.088 498.054 234.088ZM574.322 234.352C569.805 234.352 565.816 233.325 562.354 231.272C558.952 229.16 556.253 226.285 554.258 222.648C552.322 218.952 551.354 214.728 551.354 209.976C551.354 205.165 552.381 200.941 554.434 197.304C556.546 193.608 559.421 190.733 563.058 188.68C566.754 186.568 570.949 185.512 575.642 185.512C580.394 185.512 584.589 186.568 588.226 188.68C591.864 190.733 594.709 193.608 596.762 197.304C598.874 200.941 599.96 205.165 600.018 209.976L595.266 210.768C595.266 215.403 594.357 219.509 592.538 223.088C590.778 226.608 588.314 229.365 585.146 231.36C581.978 233.355 578.37 234.352 574.322 234.352ZM575.642 253.624C571.301 253.624 567.312 252.773 563.674 251.072C560.096 249.429 557.104 247.053 554.698 243.944C553.994 243.064 553.701 242.125 553.818 241.128C553.994 240.189 554.522 239.427 555.402 238.84C556.341 238.195 557.338 237.96 558.394 238.136C559.45 238.371 560.301 238.899 560.946 239.72C562.589 241.773 564.642 243.387 567.106 244.56C569.629 245.733 572.533 246.32 575.818 246.32C578.81 246.32 581.538 245.587 584.002 244.12C586.466 242.712 588.432 240.629 589.898 237.872C591.365 235.173 592.098 231.917 592.098 228.104V215.256L594.826 208.568L600.018 209.976V228.544C600.018 233.237 598.962 237.461 596.85 241.216C594.797 245.029 591.922 248.051 588.226 250.28C584.589 252.509 580.394 253.624 575.642 253.624ZM575.642 227.136C578.869 227.136 581.714 226.403 584.178 224.936C586.642 223.469 588.578 221.445 589.986 218.864C591.394 216.283 592.098 213.32 592.098 209.976C592.098 206.632 591.394 203.669 589.986 201.088C588.578 198.448 586.642 196.395 584.178 194.928C581.714 193.461 578.869 192.728 575.642 192.728C572.474 192.728 569.629 193.461 567.106 194.928C564.642 196.395 562.706 198.448 561.298 201.088C559.89 203.669 559.186 206.632 559.186 209.976C559.186 213.32 559.89 216.283 561.298 218.864C562.706 221.445 564.642 223.469 567.106 224.936C569.629 226.403 572.474 227.136 575.642 227.136ZM635.639 234.352C630.77 234.352 626.458 233.325 622.703 231.272C619.007 229.16 616.103 226.285 613.991 222.648C611.879 218.952 610.823 214.728 610.823 209.976C610.823 205.165 611.821 200.941 613.815 197.304C615.81 193.608 618.567 190.733 622.087 188.68C625.607 186.568 629.685 185.512 634.319 185.512C638.837 185.512 642.738 186.539 646.023 188.592C649.309 190.587 651.831 193.373 653.591 196.952C655.351 200.472 656.231 204.549 656.231 209.184C656.231 210.181 655.879 211.032 655.175 211.736C654.53 212.381 653.65 212.704 652.535 212.704H616.367V206.192H652.623L649.015 208.744C648.957 205.635 648.341 202.848 647.167 200.384C645.994 197.92 644.322 195.984 642.151 194.576C639.981 193.168 637.37 192.464 634.319 192.464C630.975 192.464 628.071 193.227 625.607 194.752C623.202 196.277 621.354 198.36 620.063 201C618.773 203.64 618.127 206.632 618.127 209.976C618.127 213.32 618.861 216.312 620.327 218.952C621.853 221.533 623.906 223.587 626.487 225.112C629.127 226.637 632.178 227.4 635.639 227.4C637.517 227.4 639.453 227.048 641.447 226.344C643.501 225.64 645.114 224.819 646.287 223.88C647.109 223.235 647.989 222.912 648.927 222.912C649.866 222.853 650.687 223.117 651.391 223.704C652.271 224.525 652.741 225.435 652.799 226.432C652.858 227.371 652.447 228.192 651.567 228.896C649.573 230.48 647.079 231.8 644.087 232.856C641.154 233.853 638.338 234.352 635.639 234.352Z" fill="white"/>
<defs>
<linearGradient id="paint0_linear_24_132" x1="83.8711" y1="99.9802" x2="83.8711" y2="266" gradientUnits="userSpaceOnUse">
<stop stop-color="#A073FF"/>
<stop offset="1" stop-color="#431D95"/>
</linearGradient>
<linearGradient id="paint1_linear_24_132" x1="46.3591" y1="115.976" x2="46.3591" y2="24" gradientUnits="userSpaceOnUse">
<stop stop-color="#A073FF"/>
<stop offset="1" stop-color="#431D95"/>
</linearGradient>
</defs>
</svg>
